<?xml version="1.0" encoding="utf-8"?>
<!DOCTYPE svg PUBLIC "-//W3C//DTD SVG 1.1//EN" "http://www.w3.org/Graphics/SVG/1.1/DTD/svg11.dtd">
<svg version="1.1" id="Layer_1" xmlns="http://www.w3.org/2000/svg" xmlns:xlink="http://www.w3.org/1999/xlink" x="0px" y="0px"
	 width="585.768px" height="140.334px" viewBox="0 0 585.768 140.334" enable-background="new 0 0 585.768 140.334"
	 xml:space="preserve">
<g>
	<path fill="#002B64" d="M46.519,76.789c-2.184,0-3.996-0.416-5.434-1.248c-1.439-0.832-2.444-2.027-3.016-3.588
		c-0.572-1.56-0.668-3.414-0.286-5.563h4.42c-0.208,1.214-0.2,2.313,0.026,3.302c0.225,0.988,0.728,1.768,1.508,2.34
		c0.78,0.572,1.915,0.858,3.406,0.858c1.456,0,2.66-0.277,3.614-0.832c0.953-0.555,1.698-1.309,2.236-2.263
		c0.537-0.953,0.91-2.036,1.118-3.25l4.732-26.779h4.368l-4.732,26.779c-0.555,3.26-1.89,5.781-4.004,7.566
		C52.36,75.897,49.708,76.789,46.519,76.789z"/>
	<path fill="#002B64" d="M76.159,76.789c-2.531,0-4.663-0.59-6.396-1.768c-1.733-1.179-2.947-2.843-3.64-4.992
		c-0.694-2.149-0.798-4.662-0.312-7.54c0.381-2.184,1.04-4.151,1.976-5.902c0.936-1.75,2.088-3.25,3.458-4.498
		c1.369-1.248,2.903-2.21,4.602-2.886c1.698-0.676,3.501-1.014,5.408-1.014c2.565,0,4.706,0.59,6.422,1.768
		c1.716,1.179,2.929,2.834,3.64,4.966c0.71,2.133,0.806,4.654,0.286,7.566c-0.382,2.184-1.032,4.152-1.95,5.902
		c-0.919,1.751-2.063,3.25-3.432,4.498c-1.37,1.248-2.904,2.21-4.602,2.886C79.92,76.451,78.1,76.789,76.159,76.789z M76.783,73.044
		c1.594,0,3.103-0.39,4.524-1.17c1.421-0.779,2.643-1.958,3.666-3.536c1.022-1.576,1.742-3.526,2.158-5.85
		c0.416-2.357,0.398-4.316-0.052-5.876c-0.451-1.56-1.24-2.73-2.366-3.51c-1.127-0.78-2.488-1.17-4.082-1.17
		c-1.56,0-3.051,0.39-4.472,1.17c-1.422,0.779-2.652,1.95-3.692,3.51s-1.768,3.519-2.184,5.876c-0.416,2.323-0.39,4.273,0.078,5.85
		c0.468,1.578,1.265,2.757,2.392,3.536C73.879,72.655,75.223,73.044,76.783,73.044z"/>
	<path fill="#002B64" d="M109.022,76.789c-1.664,0-3.051-0.252-4.16-0.754c-1.11-0.502-2.002-1.135-2.678-1.897
		c-0.676-0.763-1.205-1.509-1.586-2.236l-1.092,4.264h-3.952l6.604-37.439h4.368l-2.548,14.403c1.109-1.629,2.548-2.859,4.316-3.691
		s3.657-1.248,5.668-1.248c2.496,0,4.567,0.606,6.214,1.82c1.646,1.214,2.808,2.886,3.484,5.018
		c0.676,2.132,0.771,4.585,0.286,7.358c-0.347,2.079-0.98,3.995-1.898,5.745c-0.919,1.751-2.037,3.276-3.354,4.576
		c-1.318,1.3-2.8,2.306-4.446,3.017C112.601,76.433,110.859,76.789,109.022,76.789z M109.126,72.993
		c1.629,0,3.154-0.424,4.576-1.273c1.421-0.85,2.643-2.063,3.666-3.641c1.022-1.577,1.724-3.44,2.106-5.59
		c0.381-2.149,0.338-4.012-0.13-5.59c-0.468-1.577-1.257-2.79-2.366-3.64c-1.11-0.85-2.479-1.274-4.108-1.274
		c-1.734,0-3.311,0.425-4.732,1.274c-1.422,0.85-2.626,2.063-3.614,3.64c-0.988,1.578-1.673,3.44-2.054,5.59
		c-0.382,2.149-0.364,4.013,0.052,5.59c0.416,1.578,1.187,2.791,2.314,3.641C105.962,72.569,107.392,72.993,109.126,72.993z"/>
	<path fill="#002B64" d="M147.823,76.789c-2.669,0-4.906-0.485-6.708-1.456c-1.803-0.97-3.086-2.322-3.848-4.056
		c-0.763-1.733-0.954-3.744-0.572-6.032h4.576c-0.243,1.422-0.139,2.73,0.312,3.926c0.45,1.196,1.248,2.15,2.392,2.86
		c1.144,0.711,2.652,1.066,4.524,1.066c1.629,0,3.059-0.269,4.29-0.807c1.23-0.537,2.244-1.273,3.042-2.21
		c0.797-0.936,1.334-1.993,1.612-3.172c0.277-1.109,0.32-2.054,0.13-2.834c-0.191-0.78-0.563-1.456-1.118-2.028
		c-0.555-0.571-1.248-1.065-2.08-1.481s-1.768-0.806-2.808-1.17s-2.132-0.736-3.276-1.118c-2.843-0.97-4.906-2.158-6.188-3.563
		c-1.283-1.403-1.716-3.267-1.3-5.59c0.346-1.976,1.109-3.709,2.288-5.2c1.178-1.489,2.704-2.659,4.576-3.51
		c1.872-0.849,3.986-1.273,6.344-1.273c2.322,0,4.264,0.434,5.824,1.3c1.56,0.867,2.695,2.054,3.406,3.562
		c0.71,1.509,0.892,3.25,0.546,5.227h-4.576c0.173-1.005,0.086-1.993-0.26-2.964c-0.347-0.971-0.997-1.776-1.95-2.418
		c-0.954-0.642-2.228-0.962-3.822-0.962c-1.318-0.034-2.522,0.182-3.614,0.649c-1.092,0.468-2.002,1.136-2.73,2.002
		c-0.728,0.867-1.214,1.924-1.456,3.172c-0.139,0.937-0.104,1.734,0.104,2.393s0.58,1.214,1.118,1.664
		c0.537,0.45,1.204,0.857,2.002,1.222c0.797,0.364,1.707,0.72,2.73,1.066c1.022,0.347,2.123,0.728,3.302,1.144
		c1.248,0.451,2.375,0.962,3.38,1.534c1.005,0.572,1.846,1.257,2.522,2.054c0.676,0.798,1.144,1.76,1.404,2.886
		c0.26,1.127,0.251,2.453-0.026,3.979c-0.312,1.733-1.066,3.372-2.262,4.914c-1.196,1.543-2.782,2.8-4.758,3.77
		C152.919,76.303,150.562,76.789,147.823,76.789z"/>
	<path fill="#002B64" d="M177.723,76.789c-2.427,0-4.472-0.59-6.136-1.768c-1.664-1.179-2.834-2.843-3.51-4.992
		c-0.676-2.149-0.772-4.662-0.286-7.54c0.381-2.149,1.022-4.099,1.924-5.85c0.901-1.751,2.019-3.259,3.354-4.524
		c1.334-1.265,2.825-2.236,4.472-2.912c1.646-0.676,3.406-1.014,5.278-1.014c2.634,0,4.732,0.59,6.292,1.768
		c1.56,1.179,2.617,2.756,3.172,4.732c0.554,1.976,0.624,4.143,0.208,6.5c-0.035,0.347-0.087,0.693-0.156,1.04
		c-0.07,0.347-0.156,0.763-0.26,1.248h-21.164l0.572-3.38h16.952c0.277-1.803,0.173-3.311-0.312-4.524
		c-0.486-1.213-1.248-2.132-2.288-2.756s-2.288-0.937-3.744-0.937s-2.869,0.356-4.238,1.066c-1.37,0.711-2.548,1.76-3.536,3.146
		s-1.673,3.119-2.054,5.199l-0.26,1.456c-0.382,2.288-0.33,4.204,0.156,5.746c0.485,1.543,1.282,2.696,2.392,3.458
		c1.109,0.763,2.374,1.145,3.796,1.145c1.941,0,3.536-0.372,4.784-1.118c1.248-0.745,2.253-1.812,3.016-3.198h4.316
		c-0.694,1.526-1.656,2.895-2.886,4.108c-1.231,1.214-2.678,2.167-4.342,2.859C181.571,76.442,179.733,76.789,177.723,76.789z"/>
	<path fill="#002B64" d="M204.086,76.789c-2.115,0-3.796-0.39-5.044-1.17s-2.098-1.82-2.548-3.12
		c-0.451-1.3-0.555-2.694-0.312-4.186c0.346-1.803,1.092-3.336,2.236-4.603c1.144-1.265,2.6-2.227,4.368-2.886
		c1.768-0.658,3.761-0.988,5.98-0.988h6.812c0.312-1.768,0.364-3.24,0.156-4.42c-0.208-1.178-0.728-2.062-1.56-2.651
		c-0.832-0.59-2.028-0.885-3.588-0.885s-2.964,0.391-4.212,1.171c-1.248,0.779-2.15,1.933-2.704,3.458h-4.472
		c0.52-1.803,1.395-3.319,2.626-4.551c1.23-1.229,2.669-2.166,4.316-2.808c1.646-0.642,3.336-0.962,5.07-0.962
		c2.461,0,4.411,0.441,5.85,1.326c1.438,0.884,2.409,2.114,2.912,3.691c0.502,1.578,0.563,3.441,0.182,5.59l-3.068,17.368h-3.9
		l0.52-4.68c-0.486,0.728-1.049,1.413-1.69,2.054c-0.642,0.643-1.37,1.205-2.184,1.69c-0.815,0.485-1.699,0.867-2.652,1.144
		C206.227,76.65,205.196,76.789,204.086,76.789z M205.334,73.097c1.144,0,2.244-0.261,3.302-0.78c1.057-0.521,2.01-1.222,2.86-2.106
		c0.849-0.884,1.568-1.88,2.158-2.989c0.589-1.109,1.005-2.271,1.248-3.484l0.104-0.521h-6.448c-1.63,0-2.99,0.208-4.082,0.624
		s-1.933,0.997-2.522,1.742c-0.59,0.746-0.971,1.586-1.144,2.522c-0.243,1.491,0.026,2.695,0.806,3.614
		C202.396,72.638,203.636,73.097,205.334,73.097z"/>
	<path fill="#002B64" d="M224.47,76.165l4.784-27.352h3.952l-0.572,4.992c0.832-1.248,1.828-2.288,2.99-3.12
		c1.161-0.832,2.496-1.456,4.004-1.872s3.163-0.624,4.966-0.624l-0.78,4.576h-2.704c-1.04,0-2.072,0.139-3.094,0.416
		c-1.023,0.277-1.976,0.728-2.86,1.352c-0.884,0.624-1.647,1.474-2.288,2.548c-0.642,1.075-1.101,2.427-1.378,4.057l-2.652,15.027
		H224.47z"/>
	<path fill="#002B64" d="M256.451,76.789c-2.496,0-4.611-0.598-6.345-1.794s-2.964-2.868-3.691-5.018
		c-0.729-2.149-0.851-4.646-0.364-7.488c0.381-2.149,1.04-4.099,1.976-5.85c0.937-1.751,2.098-3.259,3.484-4.524
		c1.386-1.265,2.92-2.236,4.602-2.912s3.458-1.014,5.33-1.014c3.12,0,5.581,0.832,7.385,2.496c1.802,1.664,2.756,3.899,2.859,6.708
		h-4.472c-0.07-1.733-0.702-3.076-1.898-4.03c-1.195-0.953-2.713-1.43-4.55-1.43c-1.595,0-3.094,0.398-4.498,1.195
		c-1.404,0.798-2.608,1.977-3.614,3.536c-1.006,1.561-1.716,3.502-2.132,5.824c-0.312,1.734-0.382,3.268-0.208,4.602
		c0.173,1.335,0.563,2.444,1.17,3.328c0.606,0.885,1.378,1.552,2.314,2.002c0.936,0.451,2.01,0.677,3.224,0.677
		c1.248,0,2.418-0.217,3.51-0.65c1.093-0.433,2.071-1.066,2.938-1.898c0.866-0.832,1.525-1.819,1.976-2.964h4.473
		c-0.694,1.804-1.708,3.398-3.042,4.784c-1.335,1.387-2.887,2.47-4.654,3.25S258.53,76.789,256.451,76.789z"/>
	<path fill="#002B64" d="M274.806,76.165l6.553-37.439h4.368l-2.549,14.508c1.179-1.561,2.626-2.79,4.343-3.692
		c1.716-0.9,3.475-1.352,5.277-1.352c2.114,0,3.849,0.39,5.2,1.17c1.353,0.78,2.279,1.968,2.782,3.562
		c0.502,1.596,0.528,3.623,0.078,6.084l-3.017,17.16h-4.315l2.912-16.691c0.45-2.496,0.198-4.377-0.754-5.643
		c-0.954-1.265-2.437-1.897-4.446-1.897c-1.422,0-2.782,0.338-4.082,1.014s-2.418,1.673-3.354,2.99
		c-0.936,1.317-1.577,2.912-1.924,4.784l-2.704,15.443H274.806z"/>
	<path fill="#002B64" d="M311.609,76.165v-1.238l1.593-0.473c0.826-0.235,1.465-0.59,1.918-1.062
		c0.451-0.473,0.815-1.121,1.091-1.947l11.918-34.456h4.897l11.859,34.692c0.313,0.865,0.668,1.524,1.062,1.977
		c0.393,0.452,1.022,0.816,1.888,1.091l0.886,0.236v1.18h-14.986v-1.18l1.003-0.295c0.864-0.274,1.387-0.708,1.563-1.298
		s0.127-1.317-0.147-2.184l-2.479-7.61h-13.038L318.1,71.09c-0.276,0.866-0.354,1.574-0.236,2.124
		c0.118,0.552,0.609,0.984,1.475,1.299l1.299,0.413v1.238H311.609z M321.227,61.887h11.918l-5.782-17.76L321.227,61.887z"/>
	<path fill="#002B64" d="M360.934,76.991c-1.889,0-3.59-0.206-5.104-0.619c-1.515-0.413-2.96-0.993-4.337-1.741v-6.962h1.593
		l1.771,3.363c0.746,1.456,1.603,2.537,2.566,3.245c0.963,0.708,2.192,1.062,3.688,1.062c1.849,0,3.323-0.402,4.425-1.209
		c1.101-0.806,1.652-1.897,1.652-3.274c0-1.259-0.413-2.281-1.239-3.068c-0.826-0.786-2.301-1.514-4.425-2.183l-2.596-0.826
		c-2.321-0.708-4.16-1.779-5.517-3.216c-1.357-1.436-2.036-3.234-2.036-5.398c0-1.69,0.452-3.234,1.357-4.631
		c0.904-1.396,2.222-2.508,3.953-3.334c1.73-0.826,3.835-1.239,6.313-1.239c1.612,0,3.098,0.188,4.455,0.561
		c1.356,0.375,2.685,0.896,3.982,1.563l-0.354,6.313h-1.534l-1.828-3.363c-0.63-1.258-1.269-2.133-1.918-2.625
		s-1.643-0.738-2.979-0.738c-1.416,0-2.665,0.364-3.746,1.092c-1.083,0.729-1.623,1.74-1.623,3.039c0,1.219,0.452,2.212,1.357,2.979
		c0.904,0.767,2.359,1.484,4.366,2.153l2.536,0.767c2.871,0.905,4.917,2.104,6.137,3.599c1.219,1.496,1.829,3.285,1.829,5.369
		c0,2.794-1.112,5.045-3.334,6.756C368.121,76.135,364.984,76.991,360.934,76.991z"/>
	<path fill="#002B64" d="M386.598,76.991c-1.889,0-3.59-0.206-5.104-0.619c-1.515-0.413-2.96-0.993-4.337-1.741v-6.962h1.593
		l1.771,3.363c0.746,1.456,1.603,2.537,2.566,3.245c0.963,0.708,2.192,1.062,3.688,1.062c1.849,0,3.323-0.402,4.425-1.209
		c1.101-0.806,1.652-1.897,1.652-3.274c0-1.259-0.413-2.281-1.239-3.068c-0.826-0.786-2.301-1.514-4.425-2.183l-2.596-0.826
		c-2.321-0.708-4.16-1.779-5.517-3.216c-1.357-1.436-2.036-3.234-2.036-5.398c0-1.69,0.452-3.234,1.357-4.631
		c0.904-1.396,2.222-2.508,3.953-3.334c1.73-0.826,3.835-1.239,6.313-1.239c1.612,0,3.098,0.188,4.455,0.561
		c1.356,0.375,2.685,0.896,3.982,1.563l-0.354,6.313h-1.534l-1.828-3.363c-0.63-1.258-1.269-2.133-1.918-2.625
		s-1.643-0.738-2.979-0.738c-1.416,0-2.665,0.364-3.746,1.092c-1.083,0.729-1.623,1.74-1.623,3.039c0,1.219,0.452,2.212,1.357,2.979
		c0.904,0.767,2.359,1.484,4.366,2.153l2.536,0.767c2.871,0.905,4.917,2.104,6.137,3.599c1.219,1.496,1.829,3.285,1.829,5.369
		c0,2.794-1.112,5.045-3.334,6.756C393.785,76.135,390.648,76.991,386.598,76.991z"/>
	<path fill="#002B64" d="M401.996,76.165v-1.121l0.885-0.235c0.787-0.236,1.317-0.59,1.594-1.063
		c0.274-0.472,0.432-1.101,0.472-1.888V61.001c0-1.219,0-2.35,0-3.393c0-1.041-0.021-2.113-0.059-3.215
		c0-0.786-0.148-1.406-0.443-1.858s-0.836-0.757-1.622-0.915l-0.826-0.177v-1.063l10.325-3.422l0.708,0.649l-0.177,8.378v15.93
		c0,0.787,0.147,1.416,0.442,1.889c0.295,0.472,0.815,0.825,1.563,1.062l0.648,0.177v1.121H401.996z M408.781,43.714
		c-1.298,0-2.399-0.412-3.304-1.238c-0.905-0.826-1.357-1.868-1.357-3.127c0-1.298,0.452-2.351,1.357-3.157
		c0.904-0.806,2.006-1.209,3.304-1.209s2.398,0.403,3.304,1.209c0.904,0.807,1.357,1.859,1.357,3.157
		c0,1.259-0.453,2.301-1.357,3.127C411.18,43.302,410.079,43.714,408.781,43.714z"/>
	<path fill="#002B64" d="M428.311,76.991c-1.889,0-3.59-0.206-5.104-0.619c-1.515-0.413-2.96-0.993-4.337-1.741v-6.962h1.593
		l1.771,3.363c0.746,1.456,1.603,2.537,2.566,3.245c0.963,0.708,2.192,1.062,3.688,1.062c1.849,0,3.323-0.402,4.425-1.209
		c1.101-0.806,1.652-1.897,1.652-3.274c0-1.259-0.413-2.281-1.239-3.068c-0.826-0.786-2.301-1.514-4.425-2.183l-2.596-0.826
		c-2.321-0.708-4.16-1.779-5.517-3.216c-1.357-1.436-2.036-3.234-2.036-5.398c0-1.69,0.452-3.234,1.357-4.631
		c0.904-1.396,2.222-2.508,3.953-3.334c1.73-0.826,3.835-1.239,6.313-1.239c1.612,0,3.098,0.188,4.455,0.561
		c1.356,0.375,2.685,0.896,3.982,1.563l-0.354,6.313h-1.534l-1.828-3.363c-0.63-1.258-1.269-2.133-1.918-2.625
		s-1.643-0.738-2.979-0.738c-1.416,0-2.665,0.364-3.746,1.092c-1.083,0.729-1.623,1.74-1.623,3.039c0,1.219,0.452,2.212,1.357,2.979
		c0.904,0.767,2.359,1.484,4.366,2.153l2.536,0.767c2.871,0.905,4.917,2.104,6.137,3.599c1.219,1.496,1.829,3.285,1.829,5.369
		c0,2.794-1.112,5.045-3.334,6.756C435.498,76.135,432.361,76.991,428.311,76.991z"/>
	<path fill="#002B64" d="M454.859,76.991c-2.439,0-4.356-0.6-5.753-1.8c-1.396-1.199-2.094-3.156-2.094-5.87
		c0-0.944,0.009-1.838,0.029-2.685c0.02-0.846,0.029-1.838,0.029-2.979V49.673h-4.189v-1.298l1.594-0.235
		c1.14-0.196,2.113-0.551,2.92-1.063c0.806-0.511,1.544-1.219,2.213-2.124l3.835-5.31h1.77l-0.177,8.201h6.727v1.828h-6.785v20.119
		c0,1.416,0.304,2.479,0.914,3.187c0.609,0.708,1.366,1.062,2.271,1.062c0.786,0,1.494-0.186,2.124-0.561
		c0.629-0.373,1.259-0.875,1.889-1.504l0.767,0.885c-0.748,1.298-1.79,2.312-3.127,3.038
		C458.478,76.626,456.825,76.991,454.859,76.991z"/>
	<path fill="#002B64" d="M473.444,76.991c-2.242,0-4.14-0.64-5.693-1.917c-1.555-1.278-2.331-3.117-2.331-5.517
		c0-1.889,0.915-3.629,2.744-5.222s4.71-2.763,8.644-3.511c0.668-0.156,1.445-0.304,2.33-0.442c0.885-0.138,1.76-0.285,2.626-0.442
		V55.75c0-2.674-0.335-4.522-1.003-5.546c-0.67-1.022-1.731-1.534-3.187-1.534h-0.177c-0.905,0-1.623,0.286-2.153,0.855
		c-0.531,0.571-0.876,1.505-1.033,2.803l-0.177,0.768c-0.118,1.573-0.531,2.724-1.239,3.451c-0.708,0.729-1.593,1.092-2.654,1.092
		c-0.983,0-1.8-0.305-2.449-0.915c-0.648-0.609-0.973-1.405-0.973-2.39c0-1.612,0.55-2.969,1.651-4.07
		c1.101-1.102,2.566-1.927,4.396-2.479c1.829-0.55,3.806-0.826,5.93-0.826c3.5,0,6.175,0.847,8.024,2.537
		c1.848,1.691,2.772,4.445,2.772,8.26v13.157c0,1.691,0.806,2.537,2.419,2.537h1.357l0.59,0.649
		c-0.708,0.905-1.495,1.603-2.36,2.094c-0.865,0.492-2.045,0.738-3.54,0.738c-1.691,0-3.038-0.404-4.041-1.21
		s-1.662-1.878-1.977-3.216c-1.26,1.338-2.498,2.42-3.717,3.245C477.004,76.578,475.411,76.991,473.444,76.991z M476.866,73.214
		c0.786,0,1.534-0.177,2.242-0.53c0.708-0.354,1.593-0.944,2.655-1.771v-9.439c-1.023,0.157-2.065,0.354-3.127,0.59
		c-1.692,0.394-3.06,1.121-4.101,2.183c-1.043,1.063-1.563,2.498-1.563,4.308c0,1.573,0.363,2.743,1.091,3.51
		C474.791,72.832,475.726,73.214,476.866,73.214z"/>
	<path fill="#002B64" d="M495.038,76.165v-1.121l0.943-0.235c1.299-0.393,1.947-1.357,1.947-2.892V54.512
		c-0.039-0.826-0.177-1.465-0.413-1.918c-0.235-0.452-0.747-0.757-1.534-0.914l-0.943-0.236v-1.063l9.558-3.422l0.708,0.649
		l0.413,3.658c1.416-1.259,2.999-2.291,4.75-3.098c1.749-0.806,3.471-1.21,5.162-1.21c2.596,0,4.592,0.708,5.988,2.124
		c1.396,1.416,2.095,3.58,2.095,6.49v16.402c0,1.534,0.708,2.498,2.124,2.891l0.648,0.177v1.121h-13.569v-1.121l0.885-0.235
		c1.298-0.433,1.947-1.396,1.947-2.892V54.394c0-1.377-0.295-2.38-0.885-3.009c-0.591-0.629-1.574-0.944-2.95-0.944
		c-1.928,0-3.934,0.846-6.019,2.537v18.998c0,1.534,0.688,2.498,2.065,2.891l0.59,0.177v1.121H495.038z"/>
	<path fill="#002B64" d="M539.701,76.991c-2.439,0-4.356-0.6-5.753-1.8c-1.396-1.199-2.094-3.156-2.094-5.87
		c0-0.944,0.009-1.838,0.029-2.685c0.02-0.846,0.029-1.838,0.029-2.979V49.673h-4.189v-1.298l1.594-0.235
		c1.14-0.196,2.113-0.551,2.92-1.063c0.806-0.511,1.544-1.219,2.213-2.124l3.835-5.31h1.77l-0.177,8.201h6.727v1.828h-6.785v20.119
		c0,1.416,0.304,2.479,0.914,3.187c0.609,0.708,1.366,1.062,2.271,1.062c0.786,0,1.494-0.186,2.124-0.561
		c0.629-0.373,1.259-0.875,1.889-1.504l0.767,0.885c-0.748,1.298-1.79,2.312-3.127,3.038
		C543.319,76.626,541.667,76.991,539.701,76.991z"/>
</g>
<g>
	<line fill="none" stroke="#002B64" stroke-width="3" stroke-miterlimit="10" x1="83.561" y1="100.488" x2="189.727" y2="100.488"/>
	<line fill="none" stroke="#002B64" stroke-width="3" stroke-miterlimit="10" x1="212.561" y1="100.488" x2="501.727" y2="100.488"/>

		<line fill="none" stroke="#002B64" stroke-width="3" stroke-linecap="round" stroke-miterlimit="10" x1="211.771" y1="107.243" x2="218.817" y2="112.329"/>
	<circle fill="none" stroke="#002B64" stroke-width="3" stroke-miterlimit="10" cx="202.18" cy="100.488" r="11.841"/>
</g>
</svg>
